HIERARCHY
ROOT Hips
{
	OFFSET	0.00	0.00	0.00
	CHANNELS 6 Xposition Yposition Zposition Zrotation Xrotation Yrotation
	JOINT LeftUpLeg
	{
		OFFSET	 0.126116	-0.014019	-0.065224
		CHANNELS 3 Zrotation Xrotation Yrotation
		JOINT LeftLeg
		{
			OFFSET	 0.000000	 0.000000	 0.569914
			CHANNELS 3 Zrotation Xrotation Yrotation
			JOINT LeftFoot
			{
				OFFSET	 0.000000	 0.000000	 0.544423
				CHANNELS 3 Zrotation Xrotation Yrotation
				JOINT LeftToeBase
				{
					OFFSET	 0.000000	 0.000000	 0.207117
					CHANNELS 3 Zrotation Xrotation Yrotation
					End Site
					{
						OFFSET	 0.000000	 0.000000	 0.207117
					}
				}
			}
		}
	}
	JOINT RightUpLeg
	{
		OFFSET	-0.124023	-0.008373	-0.065224
		CHANNELS 3 Zrotation Xrotation Yrotation
		JOINT RightLeg
		{
			OFFSET	 0.000000	 0.000000	 0.570047
			CHANNELS 3 Zrotation Xrotation Yrotation
			JOINT RightFoot
			{
				OFFSET	 0.000000	 0.000000	 0.544354
				CHANNELS 3 Zrotation Xrotation Yrotation
				JOINT RightToeBase
				{
					OFFSET	 0.000000	 0.000000	 0.207540
					CHANNELS 3 Zrotation Xrotation Yrotation
					End Site
					{
						OFFSET	 0.000000	 0.000000	 0.207540
					}
				}
			}
		}
	}
	JOINT Spine
	{
		OFFSET	 0.000184	-0.007763	 0.117403
		CHANNELS 3 Zrotation Xrotation Yrotation
		JOINT Spine1
		{
			OFFSET	 0.000000	 0.000000	 0.137269
			CHANNELS 3 Zrotation Xrotation Yrotation
			JOINT Spine2
			{
				OFFSET	 0.000000	 0.000000	 0.156879
				CHANNELS 3 Zrotation Xrotation Yrotation
				JOINT LeftShoulder
				{
					OFFSET	 0.080501	-0.002496	 0.160144
					CHANNELS 3 Zrotation Xrotation Yrotation
					JOINT LeftArm
					{
						OFFSET	 0.000000	 0.000000	 0.164363
						CHANNELS 3 Zrotation Xrotation Yrotation
						JOINT LeftForeArm
						{
							OFFSET	 0.000000	 0.000000	 0.364576
							CHANNELS 3 Zrotation Xrotation Yrotation
							JOINT LeftHand
							{
								OFFSET	 0.000000	 0.000000	 0.360812
								CHANNELS 3 Zrotation Xrotation Yrotation
								JOINT LeftHandIndex1
								{
									OFFSET	 0.000000	 0.000000	 0.086006
									CHANNELS 3 Zrotation Xrotation Yrotation
									JOINT LeftHandIndex2
									{
										OFFSET	 0.000000	 0.000000	 0.047236
										CHANNELS 3 Zrotation Xrotation Yrotation
										JOINT LeftHandIndex3
										{
											OFFSET	-0.004284	-0.000551	 0.038166
											CHANNELS 3 Zrotation Xrotation Yrotation
											End Site
											{
												OFFSET	-0.004284	-0.000551	 0.038166
											}
										}
									}
								}
							}
						}
					}
				}
				JOINT Neck
				{
					OFFSET	 0.000000	 0.000000	 0.176489
					CHANNELS 3 Zrotation Xrotation Yrotation
					JOINT Head
					{
						OFFSET	 0.000000	-0.001747	 0.077940
						CHANNELS 3 Zrotation Xrotation Yrotation
						End Site
						{
							OFFSET	 0.000000	-0.001747	 0.077940
						}
					}
				}
				JOINT RightShoulder
				{
					OFFSET	-0.080363	 0.000306	 0.159706
					CHANNELS 3 Zrotation Xrotation Yrotation
					JOINT RightArm
					{
						OFFSET	 0.000000	 0.000000	 0.164196
						CHANNELS 3 Zrotation Xrotation Yrotation
						JOINT RightForeArm
						{
							OFFSET	 0.000000	 0.000000	 0.365611
							CHANNELS 3 Zrotation Xrotation Yrotation
							JOINT RightHand
							{
								OFFSET	 0.000000	 0.000000	 0.360648
								CHANNELS 3 Zrotation Xrotation Yrotation
								JOINT RightHandIndex1
								{
									OFFSET	 0.000000	 0.000000	 0.069977
									CHANNELS 3 Zrotation Xrotation Yrotation
									JOINT RightHandIndex2
									{
										OFFSET	 0.000000	 0.000000	 0.052305
										CHANNELS 3 Zrotation Xrotation Yrotation
										JOINT RightHandIndex3
										{
											OFFSET	 0.009002	-0.000782	 0.042196
											CHANNELS 3 Zrotation Xrotation Yrotation
											End Site
											{
												OFFSET	 0.009002	-0.000782	 0.042196
											}
										}
									}
								}
							}
						}
					}
				}
			}
		}
	}
}
MOTION
Frames:    6
Frame Time: 0.03333334
 0.002288	 0.022890	 1.215238	 0.001869	 0.736486	 0.483341	 4.121768	-1.740600	 179.840900	 3.149054	-11.594560	 1.749952	 4.341489	 71.407150	 1.245834	-2.385833	 28.452760	 0.000004	-4.123327	-2.151783	-179.865500	-3.142116	-11.963990	-1.790687	-4.347235	 71.430570	-1.263901	 2.384659	 28.388700	-0.000001	-0.005923	 3.783161	 0.089848	 0.000000	 0.000000	 0.000000	 0.000000	 0.000000	 0.000000	-91.229260	 83.958310	 178.242600	 12.080020	 0.580816	-1.590062	-5.132527	-0.912958	-0.284914	-17.468730	-9.182913	-4.347645	-2.434338	 5.182776	 7.472631	-5.213937	-0.202400	 3.566957	-1.378229	 35.397820	-2.634230	 0.411357	-3.779086	-0.073053	-0.595966	 0.008129	-0.142397	 87.726900	 87.419040	-176.798800	-12.547750	 3.325960	 3.698915	 5.871922	-0.462907	 0.434563	 18.063960	-10.168880	 8.637025	 3.236365	 2.840245	-9.892056	 5.070519	-0.690904	-9.399550	-2.350882	 35.473990	 5.254307
 0.014130	 0.024820	 1.223858	-177.012700	 1.963615	 0.221189	-16.269850	-13.146790	-176.942900	-0.001580	-40.233100	-5.873520	-160.668200	 86.046610	 145.937400	-1.930611	 57.284610	-0.894390	 0.902946	-11.436280	 178.406800	 6.782253	-39.869950	 9.661527	-160.709500	 84.112170	 170.065500	 2.385625	 28.167330	-0.004784	-5.543200	 4.921937	 1.557371	-1.658454	 13.248000	-2.645470	 6.787246	-29.595000	 5.448974	-91.229230	 83.958340	 178.242600	 69.435390	 70.804210	-52.619420	 3.734024	-12.612850	-33.287940	 22.121860	-12.867080	-8.813378	-11.579200	 8.810122	-24.921090	-5.213937	-0.202400	 3.566957	-1.378229	 35.397820	-2.634230	-1.856964	 7.286551	 4.983454	-3.562286	-23.347820	-7.674779	 87.727170	 87.418820	-176.799100	-93.290380	 62.581620	 80.049010	-4.459885	-10.242370	 23.943390	-33.685740	-10.390930	 18.873430	-1.053831	 25.192120	-62.667170	 5.070519	-0.690904	-9.399550	-2.350882	 35.473990	 5.254307
 0.017638	 0.021262	 1.225077	-176.285200	 2.494559	 0.189949	-16.989610	-13.856730	-177.382800	 0.339436	-40.345810	-5.663189	-153.335600	 86.322840	 138.503300	-1.867246	 58.937810	-0.980458	 0.168725	-11.946740	 178.180800	 7.006803	-39.789150	 9.795124	-160.023600	 83.747060	 169.288800	 2.386011	 28.078310	-0.006706	-5.613720	 4.921990	 1.651975	-1.431384	 13.970460	-2.352121	 6.384015	-31.049970	 5.341441	-91.229460	 83.958370	 178.242800	 69.662360	 70.604480	-54.365860	 4.144533	-12.114100	-32.025610	 21.884440	-14.065670	-8.845333	-11.416160	 9.444327	-24.864110	-5.213937	-0.202400	 3.566957	-1.378229	 35.397820	-2.634230	-2.111252	 8.124716	 5.675272	-4.221998	-24.250790	-9.193096	 87.726920	 87.418960	-176.798900	-92.627130	 62.441990	 79.630620	-3.906073	-9.282290	 22.870260	-32.834450	-11.121130	 18.992840	-1.093257	 25.153450	-62.758800	 5.070519	-0.690904	-9.399550	-2.350882	 35.473990	 5.254307
 0.018266	 0.020561	 1.225283	-176.227200	 2.675414	 0.190704	-17.035900	-14.060030	-177.488100	 0.329506	-40.355260	-5.670804	-152.204700	 86.365620	 137.403600	-1.861885	 59.068890	-0.987605	 0.124895	-12.144290	 178.149200	 7.051538	-39.782140	 9.823544	-159.566200	 83.703250	 168.822000	 2.385014	 28.308890	-0.001730	-5.591665	 4.771720	 1.625337	-1.351209	 14.128020	-2.209432	 6.188838	-31.241150	 5.202674	-91.229330	 83.958340	 178.242700	 69.697180	 70.690540	-54.672680	 4.078630	-12.022720	-32.001480	 21.643700	-14.322670	-8.815256	-11.391330	 9.487670	-24.811940	-5.213937	-0.202400	 3.566957	-1.378229	 35.397820	-2.634230	-2.147485	 8.153519	 5.771670	-4.320204	-24.253180	-9.410061	 87.726770	 87.418890	-176.798700	-92.429620	 62.343580	 79.532740	-3.919163	-9.150053	 22.654270	-32.830860	-11.296190	 19.076280	-1.212126	 24.935980	-62.575050	 5.070519	-0.690904	-9.399550	-2.350882	 35.473990	 5.254307
 0.018694	 0.019877	 1.225475	-176.199700	 2.913808	 0.176666	-17.053760	-14.316690	-177.578600	 0.297560	-40.340650	-5.690080	-151.245900	 86.417770	 136.489700	-1.862144	 59.062560	-0.987259	 0.100515	-12.417280	 178.161100	 7.097558	-39.790930	 9.855995	-159.031000	 83.700100	 168.275600	 2.383354	 28.678800	 0.006285	-5.570139	 4.541251	 1.593316	-1.277094	 14.245850	-2.056259	 5.957062	-31.370120	 5.028543	-91.229240	 83.958340	 178.242500	 69.733290	 70.845480	-54.875760	 3.951537	-11.977990	-32.155280	 21.342980	-14.581610	-8.765729	-11.372300	 9.501288	-24.755860	-5.213937	-0.202400	 3.566957	-1.378229	 35.397820	-2.634230	-2.172378	 8.087146	 5.819643	-4.388526	-24.142330	-9.550320	 87.726900	 87.419040	-176.798900	-92.265860	 62.237960	 79.484140	-3.965723	-9.037154	 22.444340	-32.862220	-11.471890	 19.167010	-1.393512	 24.612580	-62.348020	 5.070519	-0.690904	-9.399550	-2.350882	 35.473990	 5.254307
 0.018971	 0.019354	 1.225640	-176.173400	 3.142792	 0.164782	-17.067410	-14.552540	-177.654800	 0.268779	-40.313160	-5.705757	-150.456900	 86.476800	 135.738800	-1.862383	 59.056510	-0.986938	 0.082356	-12.671080	 178.188900	 7.139873	-39.790920	 9.884227	-158.649700	 83.702840	 167.878100	 2.381709	 29.034220	 0.014025	-5.565808	 4.315455	 1.563712	-1.219884	 14.318690	-1.944530	 5.736784	-31.472200	 4.875028	-91.229290	 83.958370	 178.242600	 69.833440	 71.010360	-55.024620	 3.802821	-11.983200	-32.439060	 21.058540	-14.821920	-8.717136	-11.354010	 9.514383	-24.701970	-5.213937	-0.202400	 3.566957	-1.378229	 35.397820	-2.634230	-2.196253	 8.023323	 5.865695	-4.454537	-24.035190	-9.684939	 87.726890	 87.418960	-176.798800	-92.139780	 62.135740	 79.458450	-4.012729	-8.926849	 22.234990	-32.897110	-11.631460	 19.253460	-1.566389	 24.300690	-62.131510	 5.070519	-0.690904	-9.399550	-2.350882	 35.473990	 5.254307
